<svg id="Layer_1" data-name="Layer 1" xmlns="http://www.w3.org/2000/svg" viewBox="0 0 218.49 138.6"><defs><style>.cls-1{fill:#e6e7e8;}</style></defs><ellipse class="cls-1" cx="57.61" cy="68.56" rx="36.93" ry="41.68"/><rect class="cls-1" x="43.53" y="93.3" width="16.82" height="41.68"/><rect class="cls-1" x="65.29" y="93.3" width="16.82" height="41.68"/><rect class="cls-1" x="31.03" y="100.71" width="16.82" height="41.68" transform="translate(78.75 -50.98) rotate(45)"/><rect class="cls-1" x="107.6" y="104.84" width="16.82" height="41.68" transform="translate(268.15 73.82) rotate(135)"/><ellipse class="cls-1" cx="57.61" cy="15.87" rx="14.06" ry="15.87"/><ellipse class="cls-1" cx="158.17" cy="72.18" rx="36.93" ry="41.68"/><rect class="cls-1" x="144.09" y="96.92" width="16.82" height="41.68"/><rect class="cls-1" x="165.85" y="96.92" width="16.82" height="41.68"/><rect class="cls-1" x="131.58" y="104.33" width="16.82" height="41.68" transform="translate(110.76 -121.03) rotate(45)"/><rect class="cls-1" x="208.16" y="108.46" width="16.82" height="41.68" transform="translate(442.38 8.9) rotate(135)"/><ellipse class="cls-1" cx="158.17" cy="19.49" rx="14.06" ry="15.87"/></svg>