<svg id="Layer_1" data-name="Layer 1" xmlns="http://www.w3.org/2000/svg" viewBox="0 0 218.49 210.36"><defs><style>.cls-1{fill:#e6e6e6;}</style></defs><polygon class="cls-1" points="137.43 138.86 87.95 138.86 70.53 63.26 155.34 63.26 137.43 138.86"/><rect class="cls-1" x="87.97" y="136.66" width="18.54" height="73.7"/><rect class="cls-1" x="118.87" y="136.66" width="18.54" height="73.7"/><rect class="cls-1" x="57.01" y="68.45" width="18.54" height="53.8" transform="translate(-47.82 138.81) rotate(-90)"/><rect class="cls-1" x="188.02" y="68.45" width="18.54" height="53.8" transform="translate(83.19 269.82) rotate(-90)"/><polygon class="cls-1" points="126.57 65.46 99.03 65.46 89.33 22.99 136.53 22.99 126.57 65.46"/><rect class="cls-1" x="31.81" y="55.45" width="18.54" height="79.8" transform="translate(63.41 167.87) rotate(180)"/><circle class="cls-1" cx="22.33" cy="24.59" r="22.33"/><circle class="cls-1" cx="22.33" cy="122.07" r="22.33"/><rect class="cls-1" x="205.65" y="55.45" width="18.54" height="79.8" transform="translate(411.09 167.87) rotate(180)"/><circle class="cls-1" cx="196.17" cy="22.33" r="22.33"/><circle class="cls-1" cx="196.17" cy="122.73" r="22.33"/></svg>