<svg id="Layer_1" data-name="Layer 1" xmlns="http://www.w3.org/2000/svg" viewBox="0 0 237.63 228.78"><defs><style>.cls-1{fill:#e6e6e6;}</style></defs><polygon class="cls-1" points="149.46 151.03 95.65 151.03 76.71 68.8 168.94 68.8 149.46 151.03"/><rect class="cls-1" x="95.67" y="148.63" width="20.16" height="80.15"/><rect class="cls-1" x="129.27" y="148.63" width="20.16" height="80.15"/><rect class="cls-1" x="50.98" y="63.44" width="20.16" height="58.51" transform="translate(-41 139.94) rotate(-90)"/><rect class="cls-1" x="193.46" y="63.44" width="20.16" height="58.51" transform="translate(101.48 282.42) rotate(-90)"/><polygon class="cls-1" points="137.65 71.19 107.7 71.19 97.15 25 148.49 25 137.65 71.19"/><rect class="cls-1" x="23.57" y="49.3" width="20.16" height="86.79" transform="translate(57.93 171.57) rotate(180)"/><circle class="cls-1" cx="24.28" cy="26.74" r="24.28"/><circle class="cls-1" cx="24.28" cy="132.76" r="24.28"/><rect class="cls-1" x="212.64" y="49.3" width="20.16" height="86.79" transform="translate(436.07 171.57) rotate(180)"/><circle class="cls-1" cx="213.35" cy="24.28" r="24.28"/><circle class="cls-1" cx="213.35" cy="133.48" r="24.28"/></svg>