<svg id="Layer_1" data-name="Layer 1" xmlns="http://www.w3.org/2000/svg" viewBox="0 0 232.68 147.6"><defs><style>.cls-1{fill:#e6e7e8;}</style></defs><ellipse class="cls-1" cx="61.35" cy="73.01" rx="39.33" ry="44.39"/><rect class="cls-1" x="46.36" y="99.36" width="17.91" height="44.39"/><rect class="cls-1" x="69.53" y="99.36" width="17.91" height="44.39"/><rect class="cls-1" x="24.31" y="107.74" width="17.91" height="44.39" transform="translate(90.38 -48.47) rotate(45)"/><rect class="cls-1" x="105.86" y="112.14" width="17.91" height="44.39" transform="translate(279.74 85.13) rotate(135)"/><ellipse class="cls-1" cx="61.35" cy="16.9" rx="14.98" ry="16.9"/><ellipse class="cls-1" cx="168.44" cy="76.86" rx="39.33" ry="44.39"/><rect class="cls-1" x="153.45" y="103.21" width="17.91" height="44.39"/><rect class="cls-1" x="176.61" y="103.21" width="17.91" height="44.39"/><rect class="cls-1" x="131.4" y="111.6" width="17.91" height="44.39" transform="translate(124.47 -123.06) rotate(45)"/><rect class="cls-1" x="212.94" y="115.99" width="17.91" height="44.39" transform="translate(465.28 15.99) rotate(135)"/><ellipse class="cls-1" cx="168.44" cy="20.76" rx="14.98" ry="16.9"/></svg>